<mxfile host="app.diagrams.net" modified="2021-04-21T03:10:22.020Z" agent="5.0 (Macintosh; Intel Mac OS X 10_15_7) AppleWebKit/537.36 (KHTML, like Gecko) Chrome/90.0.4430.72 Safari/537.36" etag="_vhW6r3Jo8WBJfHZcIZ8" version="14.6.3" type="github">
  <diagram id="BoD8ie7A1RGsRP_UJSm3" name="Page-1">
    <mxGraphModel dx="1298" dy="1977" grid="1" gridSize="10" guides="1" tooltips="1" connect="1" arrows="1" fold="1" page="1" pageScale="1" pageWidth="827" pageHeight="1169" math="0" shadow="0">
      <root>
        <mxCell id="0" />
        <mxCell id="1" parent="0" />
        <mxCell id="OklkMPnPf6iY6UZ0dLUM-8" style="edgeStyle=orthogonalEdgeStyle;rounded=0;orthogonalLoop=1;jettySize=auto;html=1;" parent="1" source="OklkMPnPf6iY6UZ0dLUM-2" target="OklkMPnPf6iY6UZ0dLUM-27" edge="1">
          <mxGeometry relative="1" as="geometry">
            <mxPoint x="380" y="70" as="targetPoint" />
          </mxGeometry>
        </mxCell>
        <mxCell id="OklkMPnPf6iY6UZ0dLUM-2" value="用户注册/登陆" style="rounded=1;whiteSpace=wrap;html=1;fillColor=#ffe6cc;strokeColor=#d79b00;" parent="1" vertex="1">
          <mxGeometry x="320" y="-40" width="120" height="60" as="geometry" />
        </mxCell>
        <mxCell id="OklkMPnPf6iY6UZ0dLUM-3" value="" style="shape=curlyBracket;whiteSpace=wrap;html=1;rounded=1;" parent="1" vertex="1">
          <mxGeometry x="460" y="-70" width="20" height="120" as="geometry" />
        </mxCell>
        <mxCell id="OklkMPnPf6iY6UZ0dLUM-4" value="shizi-api/auth/login" style="text;html=1;align=center;verticalAlign=middle;resizable=0;points=[];autosize=1;strokeColor=none;" parent="1" vertex="1">
          <mxGeometry x="480" y="-60" width="110" height="20" as="geometry" />
        </mxCell>
        <mxCell id="OklkMPnPf6iY6UZ0dLUM-5" value="shizi-api/auth/sendCode" style="text;html=1;align=center;verticalAlign=middle;resizable=0;points=[];autosize=1;strokeColor=none;" parent="1" vertex="1">
          <mxGeometry x="480" y="-20" width="140" height="20" as="geometry" />
        </mxCell>
        <mxCell id="OklkMPnPf6iY6UZ0dLUM-6" value="shizi-api/auth/reg" style="text;html=1;align=center;verticalAlign=middle;resizable=0;points=[];autosize=1;strokeColor=none;" parent="1" vertex="1">
          <mxGeometry x="480" y="20" width="110" height="20" as="geometry" />
        </mxCell>
        <mxCell id="OklkMPnPf6iY6UZ0dLUM-12" style="edgeStyle=orthogonalEdgeStyle;rounded=0;orthogonalLoop=1;jettySize=auto;html=1;entryX=0.5;entryY=0;entryDx=0;entryDy=0;" parent="1" source="OklkMPnPf6iY6UZ0dLUM-7" target="OklkMPnPf6iY6UZ0dLUM-11" edge="1">
          <mxGeometry relative="1" as="geometry" />
        </mxCell>
        <mxCell id="OklkMPnPf6iY6UZ0dLUM-7" value="进入大地图汉字列表" style="rounded=1;whiteSpace=wrap;html=1;fillColor=#ffe6cc;strokeColor=#d79b00;" parent="1" vertex="1">
          <mxGeometry x="320" y="330" width="120" height="60" as="geometry" />
        </mxCell>
        <mxCell id="OklkMPnPf6iY6UZ0dLUM-10" value="shizi-api/word/map/list" style="text;html=1;align=center;verticalAlign=middle;resizable=0;points=[];autosize=1;strokeColor=none;" parent="1" vertex="1">
          <mxGeometry x="480" y="310" width="130" height="20" as="geometry" />
        </mxCell>
        <mxCell id="OklkMPnPf6iY6UZ0dLUM-16" style="edgeStyle=orthogonalEdgeStyle;rounded=0;orthogonalLoop=1;jettySize=auto;html=1;entryX=0.5;entryY=0;entryDx=0;entryDy=0;" parent="1" source="OklkMPnPf6iY6UZ0dLUM-11" target="OklkMPnPf6iY6UZ0dLUM-18" edge="1">
          <mxGeometry relative="1" as="geometry">
            <mxPoint x="380" y="620" as="targetPoint" />
          </mxGeometry>
        </mxCell>
        <mxCell id="OklkMPnPf6iY6UZ0dLUM-11" value="下载上课资源" style="rounded=0;whiteSpace=wrap;html=1;fillColor=#dae8fc;strokeColor=#6c8ebf;" parent="1" vertex="1">
          <mxGeometry x="320" y="460" width="120" height="60" as="geometry" />
        </mxCell>
        <mxCell id="OklkMPnPf6iY6UZ0dLUM-14" value="在cos cdn拉取" style="text;html=1;align=center;verticalAlign=middle;resizable=0;points=[];autosize=1;strokeColor=none;" parent="1" vertex="1">
          <mxGeometry x="480" y="480" width="90" height="20" as="geometry" />
        </mxCell>
        <mxCell id="OklkMPnPf6iY6UZ0dLUM-30" style="edgeStyle=orthogonalEdgeStyle;rounded=0;orthogonalLoop=1;jettySize=auto;html=1;entryX=0;entryY=0.5;entryDx=0;entryDy=0;" parent="1" source="OklkMPnPf6iY6UZ0dLUM-18" target="OklkMPnPf6iY6UZ0dLUM-20" edge="1">
          <mxGeometry relative="1" as="geometry" />
        </mxCell>
        <mxCell id="OklkMPnPf6iY6UZ0dLUM-31" style="edgeStyle=orthogonalEdgeStyle;rounded=0;orthogonalLoop=1;jettySize=auto;html=1;entryX=0;entryY=0.5;entryDx=0;entryDy=0;" parent="1" source="OklkMPnPf6iY6UZ0dLUM-18" target="OklkMPnPf6iY6UZ0dLUM-21" edge="1">
          <mxGeometry relative="1" as="geometry" />
        </mxCell>
        <mxCell id="OklkMPnPf6iY6UZ0dLUM-32" style="edgeStyle=orthogonalEdgeStyle;rounded=0;orthogonalLoop=1;jettySize=auto;html=1;entryX=0;entryY=0.5;entryDx=0;entryDy=0;" parent="1" source="OklkMPnPf6iY6UZ0dLUM-18" target="OklkMPnPf6iY6UZ0dLUM-19" edge="1">
          <mxGeometry relative="1" as="geometry" />
        </mxCell>
        <mxCell id="OklkMPnPf6iY6UZ0dLUM-33" style="edgeStyle=orthogonalEdgeStyle;rounded=0;orthogonalLoop=1;jettySize=auto;html=1;entryX=0;entryY=0.5;entryDx=0;entryDy=0;" parent="1" source="OklkMPnPf6iY6UZ0dLUM-18" target="OklkMPnPf6iY6UZ0dLUM-23" edge="1">
          <mxGeometry relative="1" as="geometry" />
        </mxCell>
        <mxCell id="OklkMPnPf6iY6UZ0dLUM-18" value="学习" style="rounded=1;whiteSpace=wrap;html=1;fillColor=#ffe6cc;strokeColor=#d79b00;" parent="1" vertex="1">
          <mxGeometry x="320" y="588" width="120" height="60" as="geometry" />
        </mxCell>
        <mxCell id="OklkMPnPf6iY6UZ0dLUM-19" value="更新学习进度" style="rounded=1;whiteSpace=wrap;html=1;fillColor=#ffe6cc;strokeColor=#d79b00;" parent="1" vertex="1">
          <mxGeometry x="485" y="668" width="115" height="40" as="geometry" />
        </mxCell>
        <mxCell id="OklkMPnPf6iY6UZ0dLUM-20" value="&lt;span&gt;语音评测&lt;/span&gt;" style="rounded=0;whiteSpace=wrap;html=1;fillColor=#dae8fc;strokeColor=#6c8ebf;" parent="1" vertex="1">
          <mxGeometry x="485" y="550" width="115" height="40" as="geometry" />
        </mxCell>
        <mxCell id="OklkMPnPf6iY6UZ0dLUM-21" value="上传图片" style="rounded=0;whiteSpace=wrap;html=1;fillColor=#dae8fc;strokeColor=#6c8ebf;" parent="1" vertex="1">
          <mxGeometry x="485" y="608" width="115" height="40" as="geometry" />
        </mxCell>
        <mxCell id="OklkMPnPf6iY6UZ0dLUM-22" value="shizi-api/learn-progress/{wordId}" style="text;html=1;align=center;verticalAlign=middle;resizable=0;points=[];autosize=1;strokeColor=none;" parent="1" vertex="1">
          <mxGeometry x="610" y="678" width="190" height="20" as="geometry" />
        </mxCell>
        <mxCell id="OklkMPnPf6iY6UZ0dLUM-23" value="上报字学习完成" style="rounded=1;whiteSpace=wrap;html=1;fillColor=#ffe6cc;strokeColor=#d79b00;" parent="1" vertex="1">
          <mxGeometry x="485" y="728" width="115" height="40" as="geometry" />
        </mxCell>
        <mxCell id="OklkMPnPf6iY6UZ0dLUM-24" value="shizi-api/learn-progress/done/{wordId}" style="text;html=1;align=center;verticalAlign=middle;resizable=0;points=[];autosize=1;strokeColor=none;" parent="1" vertex="1">
          <mxGeometry x="610" y="738" width="220" height="20" as="geometry" />
        </mxCell>
        <mxCell id="OklkMPnPf6iY6UZ0dLUM-25" value="" style="shape=curlyBracket;whiteSpace=wrap;html=1;rounded=1;" parent="1" vertex="1">
          <mxGeometry x="460" y="300" width="20" height="120" as="geometry" />
        </mxCell>
        <mxCell id="OklkMPnPf6iY6UZ0dLUM-26" value="shizi-api/task/words/todayProgress： 每日进度" style="text;html=1;align=center;verticalAlign=middle;resizable=0;points=[];autosize=1;strokeColor=none;" parent="1" vertex="1">
          <mxGeometry x="480" y="380" width="260" height="20" as="geometry" />
        </mxCell>
        <mxCell id="OklkMPnPf6iY6UZ0dLUM-29" style="edgeStyle=orthogonalEdgeStyle;rounded=0;orthogonalLoop=1;jettySize=auto;html=1;" parent="1" source="OklkMPnPf6iY6UZ0dLUM-27" edge="1">
          <mxGeometry relative="1" as="geometry">
            <mxPoint x="380" y="210" as="targetPoint" />
          </mxGeometry>
        </mxCell>
        <mxCell id="OklkMPnPf6iY6UZ0dLUM-27" value="检查热更" style="rounded=1;whiteSpace=wrap;html=1;fillColor=#ffe6cc;strokeColor=#d79b00;" parent="1" vertex="1">
          <mxGeometry x="320" y="90" width="120" height="60" as="geometry" />
        </mxCell>
        <mxCell id="OklkMPnPf6iY6UZ0dLUM-28" value="shizi-api/version/data" style="text;html=1;align=center;verticalAlign=middle;resizable=0;points=[];autosize=1;strokeColor=none;" parent="1" vertex="1">
          <mxGeometry x="470" y="110" width="130" height="20" as="geometry" />
        </mxCell>
        <mxCell id="OklkMPnPf6iY6UZ0dLUM-34" value="依赖：shizi-api/cos/sts" style="text;html=1;align=center;verticalAlign=middle;resizable=0;points=[];autosize=1;strokeColor=none;" parent="1" vertex="1">
          <mxGeometry x="620" y="618" width="140" height="20" as="geometry" />
        </mxCell>
        <mxCell id="eEStB6bcNKEUfCNg8Fzb-2" style="edgeStyle=orthogonalEdgeStyle;rounded=0;orthogonalLoop=1;jettySize=auto;html=1;entryX=0.5;entryY=0;entryDx=0;entryDy=0;" edge="1" parent="1" source="eEStB6bcNKEUfCNg8Fzb-1" target="OklkMPnPf6iY6UZ0dLUM-7">
          <mxGeometry relative="1" as="geometry" />
        </mxCell>
        <mxCell id="eEStB6bcNKEUfCNg8Fzb-1" value="学习进度" style="rounded=1;whiteSpace=wrap;html=1;fillColor=#ffe6cc;strokeColor=#d79b00;" vertex="1" parent="1">
          <mxGeometry x="320" y="210" width="120" height="60" as="geometry" />
        </mxCell>
        <mxCell id="eEStB6bcNKEUfCNg8Fzb-3" value="&lt;div&gt;shizi-api/learn-progress/studyinfo&lt;/div&gt;" style="text;html=1;align=center;verticalAlign=middle;resizable=0;points=[];autosize=1;strokeColor=none;" vertex="1" parent="1">
          <mxGeometry x="480" y="230" width="190" height="20" as="geometry" />
        </mxCell>
      </root>
    </mxGraphModel>
  </diagram>
</mxfile>
